# xmcd CD database file
#
# Track frame offsets:
#	150
#	12837
#	25848
#	40556
#	56132
#	67230
#	87059
#	104059
#	117919
#	128524
#	142227
#	155072
#	171298
#
# Disc length: 2540 seconds
#
# Revision: 0
# Processed by: cddbd v1.5.2PL0 Copyright (c) Steve Scherf et al.
# Submitted via: CDex 1.70
#
DISCID=b509ea0d
DTITLE=Helt Oncale - Country Classics
DYEAR=2000
DGENRE=Country
TTITLE0=Jambalaya
TTITLE1=Folsom Prison Blues
TTITLE2=Six Days On The Road
TTITLE3=San Antonio Rose
TTITLE4=Jole Blon
TTITLE5=City Of New Orleans
TTITLE6=Summertime Blues
TTITLE7=Your Cheatin' Heart
TTITLE8=Walking The Floor
TTITLE9=Tennessee Waltz
TTITLE10=Orange Blossom Spezial
TTITLE11=Mississippi You're On My Mind
TTITLE12=Country Roads
EXTD=YEAR: 2000
EXTT0=
EXTT1=
EXTT2=
EXTT3=
EXTT4=
EXTT5=
EXTT6=
EXTT7=
EXTT8=
EXTT9=
EXTT10=
EXTT11=
EXTT12=
PLAYORDER=
